# xmcd
#
# Track frame offsets:
#	150
#	15876
#	32108
#	43915
#	63274
#	74639
#	88353
#	98428
#	113308
#	127329
#	140706
#	157375
#	169271
#	183293
#	195339
#	206936
#	220002
#	229638
#	241322
#	254225
#	265226
#	279570
#	296857
#	306995
#	318187
#
# Disc length: 4420 seconds
# Revision: 1
# Processed by: cddbd v1.5.2PL0 Copyright (c) Steve Scherf et al.
# Submitted via: dBpowerAMP V12.0
#
DISCID=83114219
DTITLE=Johnny Greenwood - Through The Years
DYEAR=2004
DGENRE=Country
TTITLE0=The Man in Black Has Gone
TTITLE1=The Gambler
TTITLE2=The Green Green Grass of Home
TTITLE3=He Kept it All Australian
TTITLE4=Poor Folks
TTITLE5=Wasted Years
TTITLE6=Just Another Mile to Go
TTITLE7=Little Boy Lost
TTITLE8=She Thinks I Still Care
TTITLE9=Song and Dance Man
TTITLE10=Little Angel Eyes
TTITLE11=Where The Lazy Murray River Rolls Along
TTITLE12=Jack O'Hagan's Famous Song
TTITLE13=The Little Folk
TTITLE14=Your Cheatin Heart
TTITLE15=Bracewell Neighbourhood
TTITLE16=Evey Step of The Way
TTITLE17=Our Champion Tony Mundine
TTITLE18=Detroit City
TTITLE19=Sweet Little Lonely One
TTITLE20=In Search of Lasseters Reef
TTITLE21=Some Great Morning
TTITLE22=I Wonder if She Thinking of Me Now
TTITLE23=That Little Kid Sister of Mine
TTITLE24=Big Rigs and Truck Stops
EXTD=
EXTT0=
EXTT1=
EXTT2=
EXTT3=
EXTT4=
EXTT5=
EXTT6=
EXTT7=
EXTT8=
EXTT9=
EXTT10=
EXTT11=
EXTT12=
EXTT13=
EXTT14=
EXTT15=
EXTT16=
EXTT17=
EXTT18=
EXTT19=
EXTT20=
EXTT21=
EXTT22=
EXTT23=
EXTT24=
PLAYORDER=
